<mxfile host="app.diagrams.net" modified="2024-03-25T03:50:28.440Z" agent="Mozilla/5.0 (Windows NT 10.0; Win64; x64) AppleWebKit/537.36 (KHTML, like Gecko) Chrome/122.0.0.0 Safari/537.36 Edg/122.0.0.0" etag="Jlhq792yq3zK_bAecCN0" scale="1.5" border="0" version="24.1.0" type="device">
  <diagram name="Страница — 1" id="fhaiwLWIkGYHh089tBbt">
    <mxGraphModel dx="947" dy="525" grid="1" gridSize="10" guides="1" tooltips="1" connect="1" arrows="1" fold="1" page="1" pageScale="1" pageWidth="827" pageHeight="1169" math="0" shadow="0">
      <root>
        <mxCell id="0" />
        <mxCell id="1" parent="0" />
        <mxCell id="2" value="" style="rounded=0;whiteSpace=wrap;html=1;movable=1;resizable=1;rotatable=1;deletable=1;editable=1;connectable=1;" parent="1" vertex="1">
          <mxGeometry x="20" y="330" width="620" height="430" as="geometry" />
        </mxCell>
        <mxCell id="3" value="" style="rounded=0;whiteSpace=wrap;html=1;movable=1;resizable=1;rotatable=1;deletable=1;editable=1;connectable=1;" parent="1" vertex="1">
          <mxGeometry x="180" y="360" width="310" height="370" as="geometry" />
        </mxCell>
        <mxCell id="4" value="Система &quot;Как дома&lt;span style=&quot;background-color: initial;&quot;&gt;&quot;&lt;/span&gt;" style="text;html=1;strokeColor=none;fillColor=none;align=center;verticalAlign=middle;whiteSpace=wrap;rounded=0;" parent="1" vertex="1">
          <mxGeometry x="180" y="360" width="310" height="30" as="geometry" />
        </mxCell>
        <mxCell id="5" value="&lt;font style=&quot;font-size: 10px;&quot;&gt;Прием товара на склад&lt;br&gt;&lt;/font&gt;" style="ellipse;whiteSpace=wrap;html=1;movable=1;resizable=1;rotatable=1;deletable=1;editable=1;connectable=1;container=0;" parent="1" vertex="1">
          <mxGeometry x="200" y="410" width="110" height="60" as="geometry" />
        </mxCell>
        <mxCell id="8" value="Менеджер приема" style="shape=umlActor;verticalLabelPosition=bottom;verticalAlign=top;html=1;outlineConnect=0;" parent="1" vertex="1">
          <mxGeometry x="80" y="410" width="30" height="60" as="geometry" />
        </mxCell>
        <mxCell id="9" value="" style="endArrow=none;html=1;rounded=0;exitX=0;exitY=0.5;exitDx=0;exitDy=0;" parent="1" source="5" edge="1" target="8">
          <mxGeometry width="50" height="50" relative="1" as="geometry">
            <mxPoint x="200" y="350" as="sourcePoint" />
            <mxPoint x="120" y="470" as="targetPoint" />
          </mxGeometry>
        </mxCell>
        <mxCell id="LazAZW0VkNFoKNWaj2LP-19" value="Менеджер отгрузки" style="shape=umlActor;verticalLabelPosition=bottom;verticalAlign=top;html=1;outlineConnect=0;" vertex="1" parent="1">
          <mxGeometry x="80" y="525" width="30" height="60" as="geometry" />
        </mxCell>
        <mxCell id="LazAZW0VkNFoKNWaj2LP-20" value="&lt;font style=&quot;font-size: 10px;&quot;&gt;Отгрузка товара на склад&lt;br&gt;&lt;/font&gt;" style="ellipse;whiteSpace=wrap;html=1;movable=1;resizable=1;rotatable=1;deletable=1;editable=1;connectable=1;container=0;" vertex="1" parent="1">
          <mxGeometry x="200" y="525" width="110" height="60" as="geometry" />
        </mxCell>
        <mxCell id="LazAZW0VkNFoKNWaj2LP-21" value="" style="endArrow=none;html=1;rounded=0;exitX=0;exitY=0.5;exitDx=0;exitDy=0;" edge="1" parent="1" source="LazAZW0VkNFoKNWaj2LP-20">
          <mxGeometry width="50" height="50" relative="1" as="geometry">
            <mxPoint x="200" y="465" as="sourcePoint" />
            <mxPoint x="110" y="555" as="targetPoint" />
          </mxGeometry>
        </mxCell>
        <mxCell id="LazAZW0VkNFoKNWaj2LP-23" value="" style="endArrow=none;html=1;rounded=0;exitX=0;exitY=0;exitDx=0;exitDy=0;" edge="1" parent="1" source="LazAZW0VkNFoKNWaj2LP-33">
          <mxGeometry width="50" height="50" relative="1" as="geometry">
            <mxPoint x="560" y="440" as="sourcePoint" />
            <mxPoint x="470" y="439.63" as="targetPoint" />
          </mxGeometry>
        </mxCell>
        <mxCell id="LazAZW0VkNFoKNWaj2LP-24" value="&lt;font style=&quot;font-size: 10px;&quot;&gt;Формирование заявок на товары&lt;br&gt;&lt;/font&gt;" style="ellipse;whiteSpace=wrap;html=1;movable=1;resizable=1;rotatable=1;deletable=1;editable=1;connectable=1;container=0;" vertex="1" parent="1">
          <mxGeometry x="360" y="410" width="110" height="60" as="geometry" />
        </mxCell>
        <mxCell id="LazAZW0VkNFoKNWaj2LP-25" value="&lt;font style=&quot;font-size: 10px;&quot;&gt;Проведение инвентаризации&lt;br&gt;&lt;/font&gt;" style="ellipse;whiteSpace=wrap;html=1;movable=1;resizable=1;rotatable=1;deletable=1;editable=1;connectable=1;container=0;" vertex="1" parent="1">
          <mxGeometry x="360" y="490" width="110" height="60" as="geometry" />
        </mxCell>
        <mxCell id="LazAZW0VkNFoKNWaj2LP-26" value="&lt;font style=&quot;font-size: 10px;&quot;&gt;Подготовка отчетов&lt;br&gt;&lt;/font&gt;" style="ellipse;whiteSpace=wrap;html=1;movable=1;resizable=1;rotatable=1;deletable=1;editable=1;connectable=1;container=0;" vertex="1" parent="1">
          <mxGeometry x="360" y="570" width="110" height="60" as="geometry" />
        </mxCell>
        <mxCell id="LazAZW0VkNFoKNWaj2LP-27" value="&lt;font style=&quot;font-size: 10px;&quot;&gt;Подсчет объема выполненных работ&lt;br&gt;&lt;/font&gt;" style="ellipse;whiteSpace=wrap;html=1;movable=1;resizable=1;rotatable=1;deletable=1;editable=1;connectable=1;container=0;" vertex="1" parent="1">
          <mxGeometry x="360" y="650" width="110" height="60" as="geometry" />
        </mxCell>
        <mxCell id="LazAZW0VkNFoKNWaj2LP-28" value="" style="endArrow=none;html=1;rounded=0;entryX=1;entryY=0.5;entryDx=0;entryDy=0;exitX=0;exitY=0;exitDx=0;exitDy=0;" edge="1" parent="1" source="LazAZW0VkNFoKNWaj2LP-33" target="LazAZW0VkNFoKNWaj2LP-25">
          <mxGeometry width="50" height="50" relative="1" as="geometry">
            <mxPoint x="560" y="440" as="sourcePoint" />
            <mxPoint x="480" y="449.63" as="targetPoint" />
          </mxGeometry>
        </mxCell>
        <mxCell id="LazAZW0VkNFoKNWaj2LP-29" value="" style="endArrow=none;html=1;rounded=0;entryX=1;entryY=0.5;entryDx=0;entryDy=0;exitX=0;exitY=0;exitDx=0;exitDy=0;" edge="1" parent="1" source="LazAZW0VkNFoKNWaj2LP-33" target="LazAZW0VkNFoKNWaj2LP-26">
          <mxGeometry width="50" height="50" relative="1" as="geometry">
            <mxPoint x="560" y="440" as="sourcePoint" />
            <mxPoint x="490" y="459.63" as="targetPoint" />
          </mxGeometry>
        </mxCell>
        <mxCell id="LazAZW0VkNFoKNWaj2LP-30" value="" style="endArrow=none;html=1;rounded=0;entryX=1;entryY=0.5;entryDx=0;entryDy=0;exitX=0;exitY=0;exitDx=0;exitDy=0;" edge="1" parent="1" source="LazAZW0VkNFoKNWaj2LP-33" target="LazAZW0VkNFoKNWaj2LP-27">
          <mxGeometry width="50" height="50" relative="1" as="geometry">
            <mxPoint x="560" y="440" as="sourcePoint" />
            <mxPoint x="500" y="469.63" as="targetPoint" />
          </mxGeometry>
        </mxCell>
        <mxCell id="LazAZW0VkNFoKNWaj2LP-33" value="" style="rounded=0;whiteSpace=wrap;html=1;strokeColor=none;" vertex="1" parent="1">
          <mxGeometry x="520" y="540" width="120" height="60" as="geometry" />
        </mxCell>
        <mxCell id="LazAZW0VkNFoKNWaj2LP-22" value="Старший менеджер" style="shape=umlActor;verticalLabelPosition=bottom;verticalAlign=top;html=1;outlineConnect=0;" vertex="1" parent="1">
          <mxGeometry x="550" y="510" width="30" height="60" as="geometry" />
        </mxCell>
      </root>
    </mxGraphModel>
  </diagram>
</mxfile>
